<?xml version="1.0" encoding="UTF-8"?>
<svg id="Layer_2" data-name="Layer 2" xmlns="http://www.w3.org/2000/svg" viewBox="0 0 144.99 115.77">
  <defs>
    <style>
      .cls-1 {
        fill: #022b4f;
      }
    </style>
  </defs>
  <g id="Layer_5" data-name="Layer 5">
    <g>
      <polygon class="cls-1" points="27.68 0 0 0 0 2.39 13.84 2.39 13.84 92.1 0 92.1 0 94.66 43.23 94.66 43.23 92.23 27.85 92.1 27.68 0"/>
      <path class="cls-1" d="m54.97.12h21.31v21.43l-2.36-6.71c-2.39-6.03-7.29-10.72-13.42-12.83L54.97.12Z"/>
      <polygon class="cls-1" points="95.01 11.79 87.14 29.99 105.34 77.92 71.25 77.92 71.25 81.51 106.37 81.51 118.76 113.12 103.72 113.12 103.72 115.77 144.99 115.77 144.99 113.03 133.2 113.12 95.01 11.79"/>
      <path class="cls-1" d="m57.2,25.67v37.46l-2.02-6.01c-1.37-4.09-4.15-7.57-7.84-9.81l-4.8-2.91,3.76-2.06c4.31-2.37,7.55-6.29,9.06-10.97l1.84-5.7Z"/>
    </g>
  </g>
</svg>