<?xml version="1.0" encoding="UTF-8"?>
<svg id="Layer_2" data-name="Layer 2" xmlns="http://www.w3.org/2000/svg" viewBox="0 0 152.38 152.38">
  <defs>
    <style>
      .cls-1 {
        fill: #022b4f;
      }

      .cls-2 {
        fill: #fedd9a;
      }
    </style>
  </defs>
  <g id="Layer_5" data-name="Layer 5">
    <g>
      <circle class="cls-2" cx="76.19" cy="76.19" r="76.19"/>
      <g>
        <polygon class="cls-1" points="47.26 36.31 28.19 36.31 28.19 37.96 37.72 37.96 37.72 99.76 28.19 99.76 28.19 101.53 57.97 101.53 57.97 99.85 47.37 99.76 47.26 36.31"/>
        <path class="cls-1" d="m66.05,36.39h14.68v14.77l-1.63-4.62c-1.64-4.16-5.02-7.38-9.25-8.84l-3.8-1.31Z"/>
        <polygon class="cls-1" points="93.64 44.44 88.22 56.97 100.76 89.99 77.27 89.99 77.27 92.46 101.46 92.46 110 114.24 99.64 114.24 99.64 116.07 128.07 116.07 128.07 114.18 119.95 114.24 93.64 44.44"/>
        <path class="cls-1" d="m67.59,54v25.81l-1.39-4.14c-.95-2.82-2.86-5.21-5.4-6.76l-3.3-2.01,2.59-1.42c2.97-1.63,5.2-4.33,6.24-7.56l1.27-3.93Z"/>
      </g>
    </g>
  </g>
</svg>